<?xml version="1.0" encoding="utf-8"?>
<!-- Generator: Adobe Illustrator 17.0.1, SVG Export Plug-In . SVG Version: 6.00 Build 0)  -->
<!DOCTYPE svg PUBLIC "-//W3C//DTD SVG 1.1//EN" "http://www.w3.org/Graphics/SVG/1.1/DTD/svg11.dtd">
<svg version="1.1" id="Layer_0_xA0_Image_1_" xmlns="http://www.w3.org/2000/svg" xmlns:xlink="http://www.w3.org/1999/xlink"
	 x="0px" y="0px" width="1594.32px" height="1799.52px" viewBox="0 0 1594.32 1799.52" enable-background="new 0 0 1594.32 1799.52"
	 xml:space="preserve">
<path fill="#747372" d="M-0.12,1743.68c1.473-0.561,1.572-1.908,1.72-3.159c0.716-6.031,1.353-12.072,2.084-18.101
	c1.172-9.678,2.398-19.349,3.596-29.024c1.08-8.724,2.145-17.45,3.229-26.173c1.143-9.198,2.344-18.39,3.44-27.594
	c0.832-6.983,1.535-13.982,2.302-20.972c0.994-9.06,1.884-18.128,2.315-27.237c0.06-1.264,0.344-2.518,0.508-3.657
	c1.163-0.763,2.311-0.571,3.413-0.572c13.118-0.013,26.236-0.019,39.354-0.002c3.752,0.005,3.824,0.038,4.07,3.55
	c0.247,3.525,0.956,6.964,1.674,10.405c2.485,11.903,5.941,23.547,9.523,35.152c4.571,14.81,9.521,29.506,13.386,44.528
	c1.991,7.739,4.105,15.451,4.669,23.473c0.022,0.31,0.097,0.646,0.251,0.909c0.144,0.246,0.401,0.519,0.655,0.577
	c0.199,0.045,0.615-0.17,0.679-0.357c0.202-0.595,0.32-1.226,0.409-1.852c1.492-10.491,4.475-20.613,7.851-30.607
	c4.653-13.778,9.601-27.457,14.352-41.202c3.55-10.271,6.97-20.585,9.457-31.183c0.878-3.74,1.662-7.483,1.942-11.328
	c0.115-1.577,0.601-1.953,2.082-2.043c0.797-0.048,1.599-0.029,2.399-0.029c12.478-0.001,24.956-0.002,37.434,0
	c0.96,0,1.92,0.008,2.879,0.035c1.099,0.03,1.821,0.52,1.876,1.695c0.045,0.958,0.053,1.919,0.063,2.878
	c0.115,11.039,0.828,22.049,1.634,33.054c0.42,5.741,0.721,11.49,1.173,17.229c0.841,10.677,1.749,21.348,2.64,32.021
	c0.346,4.142,0.729,8.281,1.082,12.423c1.265,14.813,2.536,29.626,3.78,44.442c0.334,3.983,0.597,7.972,0.861,11.96
	c0.078,1.17-0.483,1.762-1.64,1.877c-0.318,0.031-0.639,0.034-0.959,0.034c-9.919,0.001-19.837,0.002-29.756-0.004
	c-0.477,0-0.957-0.042-1.431-0.103c-0.691-0.088-1.206-0.467-1.285-1.169c-0.108-0.95-0.117-1.913-0.146-2.87
	c-0.371-12.31-0.603-24.625-1.141-36.927c-0.65-14.856-1.641-29.696-2.329-44.551c-0.621-13.42-1.003-26.851-1.58-40.273
	c-0.06-1.403,0.902-3.261-1.181-4.149c-1.54,0.855-1.236,2.469-1.531,3.814c-5.156,23.465-12.456,46.276-20.836,68.766
	c-4.855,13.029-9.868,26.005-14.155,39.239c-1.723,5.318-3.463,10.638-4.386,16.179c-0.289,1.738-0.633,2.028-2.601,2.034
	c-7.518,0.026-15.037-0.002-22.555-0.034c-0.459-0.002-0.916-0.216-1.341-0.323c-1.212-2.218-1.157-4.692-1.755-7.001
	c-2.967-11.466-6.859-22.632-10.805-33.781c-5.6-15.82-11.261-31.619-16.392-47.601c-4.06-12.647-7.174-25.531-9.613-38.583
	c-0.143-0.768-0.348-1.533-0.625-2.261c-0.072-0.189-0.54-0.35-0.795-0.313c-0.236,0.034-0.55,0.316-0.619,0.552
	c-0.133,0.449-0.14,0.941-0.159,1.417c-0.288,7.351-0.484,14.707-0.871,22.053c-0.791,15.009-1.691,30.012-2.531,45.018
	c-0.366,6.546-0.767,13.092-1.025,19.643c-0.484,12.305-0.877,24.614-1.305,36.921c-0.028,0.799-0.031,1.599-0.055,2.399
	c-0.033,1.125-0.604,1.765-1.733,1.864c-0.477,0.042-0.959,0.051-1.438,0.048c-10.068-0.062-20.137-0.127-30.205-0.192
	C-0.12,1744.32-0.12,1744-0.12,1743.68z"/>
<path fill="#747372" d="M1268.04,1795.52c-0.033-0.639-0.087-1.277-0.096-1.916c-0.304-22.715-0.624-45.429-0.89-68.144
	c-0.062-5.284-0.666-5.364,5.078-5.354c2.4,0.004,4.802-0.072,7.199,0.016c1.931,0.071,2.797-0.85,3.408-2.606
	c2.68-7.698,5.452-15.365,8.252-23.021c12.693-34.704,26.898-68.783,42.458-102.296c2.726-5.871,1.34-4.99,7.678-5.002
	c19.679-0.038,39.358-0.01,59.037-0.016c4.496-0.001,4.503-0.132,4.332,4.515c-1.011,27.503-1.416,55.016-1.05,82.534
	c0.16,11.993,0.69,23.982,1.113,35.971c0.096,2.713,0.443,5.418,0.677,8.126c0.099,1.147,0.784,1.714,1.882,1.723
	c4.639,0.036,9.279,0.038,13.918,0.06c1.599,0.008,3.199,0.015,4.797,0.072c1.135,0.04,1.786,0.673,1.733,1.823
	c-0.138,3.035-0.194,6.082-0.519,9.099c-1.163,10.807-2.323,21.615-3.677,32.399c-1.335,10.64-1.821,21.344-2.69,32.018
	c-8,0-16,0-24,0c0.048-0.475,0.141-0.949,0.139-1.424c-0.068-15.196-0.146-30.391-0.224-45.587c-0.005-0.959-0.011-1.92-0.058-2.878
	c-0.056-1.145-0.726-1.708-1.833-1.788c-0.638-0.046-1.277-0.078-1.917-0.097c-10.869-0.32-21.737-0.793-32.609-0.921
	c-19.352-0.227-38.706-0.193-58.04,0.891c-0.798,0.045-1.601,0.032-2.397,0.104c-1.691,0.154-2.157,0.561-2.561,2.281
	c-0.182,0.776-0.259,1.576-0.382,2.366c-1.478,9.471-3.112,18.921-4.378,28.421c-0.821,6.167-1.638,12.368-1.341,18.631
	C1283.4,1795.52,1275.72,1795.52,1268.04,1795.52z M1341.166,1720.306c8.95,0,17.9,0.004,26.85-0.005
	c1.276-0.001,2.556-0.023,3.828-0.116c0.887-0.065,1.493-0.589,1.53-1.518c0.039-0.955-0.012-1.916-0.058-2.873
	c-0.205-4.307-0.55-8.612-0.615-12.921c-0.285-19.015-0.501-38.031-0.723-57.046c-0.113-9.749-0.181-19.497-0.278-29.246
	c-0.013-1.277-0.048-2.555-0.133-3.829c-0.062-0.928-0.672-1.46-1.558-1.467c-5.593-0.039-11.186-0.024-16.779-0.054
	c-1.097-0.006-1.804,0.516-2.279,1.423c-0.296,0.565-0.528,1.163-0.782,1.75c-9.581,22.133-18.844,44.395-27.29,66.989
	c-4.194,11.218-8.245,22.488-11.778,33.935c-0.375,1.214-0.688,2.454-0.902,3.704c-0.07,0.411,0.24,0.972,0.792,1.025
	c1.264,0.122,2.535,0.235,3.803,0.238C1323.585,1720.316,1332.375,1720.306,1341.166,1720.306z"/>
<path fill="#747372" d="M1594.44,1744.64c-4.312,0.066-8.624,0.169-12.937,0.188c-7.035,0.032-14.07,0.001-21.106,0.012
	c-3.941,0.006-3.961,0.005-4.485-3.735c-0.953-6.807-2.775-13.445-4.601-20.067c-1.698-6.158-3.4-12.317-5.177-18.452
	c-0.854-2.948-0.936-2.981-3.955-2.987c-11.352-0.026-22.705-0.012-34.057-0.012c-5.436,0-10.873-0.027-16.309,0.021
	c-2.209,0.019-2.448,0.17-3.078,2.23c-4.109,13.437-8.505,26.801-10.597,40.763c-0.276,1.841-0.573,2.193-2.432,2.206
	c-6.555,0.047-13.111,0.029-19.666,0.029c-4.157,0-8.314,0.014-12.471-0.038c-1.538-0.019-2.097-0.684-1.644-2.122
	c1.437-4.569,2.893-9.136,4.505-13.645c9.686-27.08,20.371-53.782,30.619-80.649c6.205-16.269,12.477-32.517,17.802-49.104
	c1.073-3.341,1.939-6.749,2.853-10.139c0.333-1.233,0.98-1.952,2.318-1.934c0.959,0.013,1.918-0.02,2.878-0.021
	c11.992-0.002,23.984-0.001,35.976,0c0.959,0,1.92,0.047,2.877,0.008c1.342-0.054,2.045,0.618,2.367,1.861
	c7.614,29.435,18.697,57.724,28.609,86.398c6.211,17.966,12.593,35.873,18.328,54c1.058,3.344,2.254,6.657,2.635,10.185
	c0.044,0.41,0.489,0.777,0.748,1.164C1594.44,1742.08,1594.44,1743.36,1594.44,1744.64z M1495.777,1676.061
	c1.545,0.721,3.157,0.404,4.72,0.408c10.861,0.028,21.722,0.027,32.583,0.01c6.679-0.01,6.182,0.61,4.124-5.77
	c-6.416-19.89-13.308-39.633-18.568-59.882c-0.117-0.45-0.268-0.966-0.58-1.269c-0.31-0.301-0.906-0.452-1.234,0.044
	c-0.343,0.518-0.657,1.099-0.801,1.696c-1.833,7.611-4.309,15.03-6.749,22.455c-4.084,12.431-8.283,24.824-12.374,37.253
	C1496.365,1672.626,1495.322,1674.182,1495.777,1676.061z"/>
<path fill="#CE2123" d="M798.239,8.674c148.469,0,296.937-0.002,445.406,0.021c2.204,0,4.452-0.403,6.619,0.382
	c1.209,2.258,0.547,4.691,0.548,7.027c0.036,217.583,0.024,435.167,0.061,652.75c0.002,12.648-0.313,25.28-1.233,37.884
	c-1.408,19.311-3.925,38.492-7.671,57.494c-7.138,36.21-18.152,71.202-33.312,104.866
	c-25.665,56.993-60.928,107.209-106.511,150.034c-49.272,46.29-106.095,79.803-170.687,99.989
	c-19.857,6.206-40.074,10.857-60.61,14.227c-30.743,5.046-61.682,6.572-92.763,5.385c-12.939-0.494-25.836-1.707-38.698-3.363
	c-22.398-2.884-44.441-7.406-66.117-13.699c-63.691-18.489-120.325-49.855-169.772-93.981
	c-64.787-57.814-109.552-128.635-135.927-211.217c-7.16-22.42-12.487-45.295-16.186-68.53c-2.641-16.588-4.41-33.277-5.302-50.068
	c-0.493-9.274-0.688-18.542-0.688-27.82c-0.006-218.383-0.007-436.766,0.012-655.15c0.001-7.19-1.032-6.216,6.466-6.217
	C500.662,8.669,649.45,8.674,798.239,8.674z M798.287,598.855c0.733,0.771,1.297,1.328,1.822,1.921
	c4.958,5.596,10.948,9.781,17.688,12.937c7.143,3.344,14.677,5.414,22.417,6.776c12.643,2.225,25.404,2.927,38.219,2.864
	c1.276-0.006,2.572-0.03,3.823-0.249c9.137-1.6,18.173-3.638,26.997-6.529c18.437-6.042,35.314-14.922,49.975-27.745
	c21.038-18.4,34.144-41.567,40.902-68.501c4.756-18.955,5.692-38.226,4.56-57.644c-0.438-7.517-1.504-14.893-4.385-21.987
	c-5.939-14.625-13.586-28.211-23.577-40.452c-4.584-5.616-9.878-10.461-15.874-14.529c-1.297-0.88-2.906-2.591-4.172-1.787
	c-1.741,1.105-0.331,3.169,0.073,4.779c3.096,12.327,3.187,24.668,0.348,37.055c-2.193,9.572-5.853,18.574-10.346,27.267
	c-0.661,1.278-1.393,2.527-1.948,3.849c-0.843,2.004-0.167,3.481,1.853,4.156c2.782,0.929,5.667,1.028,8.547,0.753
	c3.818-0.365,7.625-0.847,11.434-1.307c3.015-0.364,6.023-0.784,9.038-1.146c0.907-0.109,1.561,0.275,1.629,1.267
	c0.065,0.955,0.078,1.915,0.078,2.873c0.002,8.657-0.788,17.246-2.231,25.779c-2.414,14.279-7.743,27.307-16.532,38.888
	c-4.46,5.876-9.269,11.432-14.626,16.5c-11.371,10.76-24.02,19.604-38.638,25.42c-8.994,3.579-18.278,5.706-28.046,5.427
	c-12.209-0.35-22.845-4.581-31.582-13.078c-13.276-12.912-21.007-28.443-21.28-47.249c-0.128-8.797-0.161-17.596-0.163-26.394
	c-0.013-61.273-0.007-122.545-0.003-183.818c0-1.598,0.036-3.197,0.095-4.794c0.026-0.715,0.463-1.207,1.171-1.241
	c1.596-0.078,3.196-0.095,4.795-0.095c44.475-0.005,88.949-0.004,133.424-0.005c1.44,0,2.881,0.028,4.319-0.029
	c1.512-0.06,1.896-0.466,1.971-2.077c0.06-1.277,0.028-2.559,0.028-3.839c0.002-13.278,0.013-26.557-0.003-39.835
	c-0.008-6.778,0.583-5.904-5.864-5.907c-44.794-0.021-89.589-0.002-134.384-0.022c-6.263-0.003-5.542,0.783-5.546-5.669
	c-0.02-37.915-0.009-75.831-0.01-113.746c0-1.44-0.002-2.88-0.044-4.319c-0.028-0.926-0.573-1.494-1.477-1.561
	c-1.273-0.094-2.554-0.111-3.831-0.111c-13.918-0.007-27.837-0.004-41.755-0.004c-0.8,0-1.601-0.021-2.4,0.01
	c-2.536,0.098-2.75,0.299-2.82,2.749c-0.037,1.279-0.01,2.56-0.01,3.839c0,37.755,0.012,75.511-0.009,113.266
	c-0.003,6.37,0.737,5.542-5.669,5.545c-44.635,0.022-89.269,0.012-133.904,0.012c-1.28,0-2.561-0.03-3.839,0.013
	c-1.912,0.065-2.268,0.4-2.362,2.187c-0.05,0.957-0.023,1.919-0.023,2.879c-0.001,13.758-0.003,27.517,0.001,41.275
	c0.002,6.052-0.388,5.333,5.48,5.335c44.635,0.015,89.269-0.008,133.904,0.026c7.402,0.006,6.405-1.059,6.409,6.237
	c0.035,66.072,0.039,132.144,0.031,198.216c-0.001,4.638-0.068,9.281-0.28,13.913c-0.243,5.283-1.11,10.479-2.589,15.573
	c-3.298,11.364-9.769,20.797-18.004,29.046c-8.998,9.013-20.018,13.447-32.776,13.679c-10.441,0.19-20.322-2.224-29.758-6.423
	c-23.762-10.575-42.456-27.057-56.327-49.021c-3.603-5.705-6.33-11.836-8.209-18.323c-3.767-13.005-5.222-26.316-5.188-39.818
	c0.001-0.477,0.034-0.96,0.109-1.431c0.111-0.696,0.511-1.165,1.256-1.127c0.955,0.049,1.908,0.155,2.857,0.272
	c5.712,0.701,11.417,1.454,17.135,2.098c2.382,0.268,4.782,0.28,7.173-0.14c3.681-0.647,5.858-1.854,3.187-6.552
	c-2.768-4.868-5.061-9.979-7.089-15.199c-6.607-17.005-8.582-34.339-3.659-52.16c0.252-0.911,0.327-1.88,0.396-2.828
	c0.068-0.932-0.721-1.421-1.604-0.954c-1.267,0.671-2.522,1.381-3.706,2.187c-5.184,3.531-9.856,7.654-13.909,12.441
	c-11.592,13.693-20.328,29.038-26.341,45.93c-1.125,3.159-2.013,6.389-2.377,9.758c-1.034,9.562-1.254,19.152-1.054,28.754
	c0.315,15.106,2.461,29.952,6.839,44.421c9.815,32.436,28.925,57.764,58.077,75.287c15.221,9.15,31.725,14.989,49.024,18.775
	c6.92,1.514,13.862,2.288,20.936,1.847c4.628-0.289,9.26-0.519,13.888-0.812c8.477-0.537,16.847-1.799,25.059-3.971
	c12.464-3.297,23.627-8.851,32.151-18.881C797.386,599.391,797.703,599.257,798.287,598.855z M842.855,737.23
	c1.109-1.679,2.425-1.968,3.534-2.535c8.253-4.223,16.537-8.386,24.795-12.6c30.478-15.554,60.779-31.435,90.089-49.131
	c27.565-16.641,54.048-34.812,78.606-55.699c30.674-26.089,57.266-55.762,78.81-89.857c7.18-11.363,13.955-22.954,19.417-35.262
	c1.815-4.09,3.552-8.216,4.59-12.597c0.298-1.256,0.541-2.497,0.397-3.792c-0.183-1.653-1.379-2.5-3.05-2.147
	c-1.762,0.373-3.248,1.334-4.711,2.303c-3.343,2.214-6.384,4.816-9.329,7.526c-12.858,11.832-24.629,24.69-35.692,38.191
	c-21.866,26.684-46.001,51.124-72.35,73.376c-48.14,40.653-101.435,72.91-159.368,97.56c-12.35,5.255-24.846,10.167-37.256,15.282
	c-6.945,2.862-13.879,5.751-20.757,8.768c-1.784,0.783-3.32,0.908-4.985-0.059c-0.549-0.319-1.165-0.524-1.755-0.769
	c-11.805-4.908-23.524-10.035-35.432-14.68c-46.968-18.32-91.397-41.431-132.929-70.045
	c-43.728-30.127-82.903-65.279-116.833-106.182c-7.563-9.117-15.294-18.073-23.443-26.668c-5.506-5.808-11.146-11.479-17.18-16.743
	c-2.533-2.21-5.124-4.348-8-6.107c-1.227-0.751-2.462-1.492-3.908-1.771c-1.644-0.316-2.898,0.564-2.955,2.245
	c-0.038,1.103,0.029,2.256,0.314,3.315c0.622,2.31,1.312,4.613,2.155,6.85c2.654,7.042,5.937,13.799,9.539,20.4
	c19.319,35.401,43.837,66.786,73.048,94.546c23.74,22.561,49.801,42.122,77.279,59.859c26.357,17.013,53.72,32.275,81.511,46.78
	c17.572,9.171,35.283,18.072,52.898,27.161c1.158,0.598,2.894,0.655,3.259,2.597c-28.822,10.948-57.632,21.892-86.253,32.763
	c-1.184-0.664-1.477-1.576-1.842-2.473c-4.761-11.694-9.629-23.346-14.285-35.082c-3.004-7.573-5.719-15.262-8.536-22.909
	c-1.553-4.215-3.32-8.318-6.008-11.956c-4.145-5.608-9.677-8.157-16.653-7.476c-5.273,0.514-10.416,1.654-15.436,3.319
	c-2.586,0.858-5.049,2.011-7.286,3.596c-4.053,2.872-6.246,6.719-6.314,11.759c-0.041,3.061,0.242,6.093,0.886,9.057
	c1.761,8.11,7.253,12.559,15.633,12.919c4.04,0.174,7.961-0.525,11.862-1.449c1.089-0.258,2.172-0.566,3.276-0.725
	c0.649-0.094,1.258,0.221,1.502,0.906c0.322,0.903,0.619,1.818,0.881,2.74c3.976,13.988,7.895,27.992,11.941,41.96
	c1.382,4.771,1.296,4.306-3.294,5.711c-34.423,10.536-68.179,22.845-100.763,38.228c-13.169,6.217-26.02,13.027-38.121,21.173
	c-6.115,4.116-11.91,8.622-17.186,13.8c-3.94,3.867-6.006,8.558-6.951,13.899c-0.736,4.162-0.595,8.3,0.134,12.414
	c1.254,7.075,4.048,13.456,9.025,18.745c5.097,5.415,11.423,8.424,18.832,7.959c11.748-0.737,21.086-6.202,27.465-16.129
	c4.283-6.666,4.687-13.792,0.894-20.946c-0.376-0.708-0.813-1.38-0.725-2.375c0.966-1.183,2.423-1.89,3.819-2.625
	c4.808-2.53,9.573-5.162,14.496-7.45c19.151-8.901,38.86-16.404,58.884-23.083c15.306-5.106,30.884-9.386,45.963-15.178
	c0.298-0.114,0.615-0.176,0.916-0.283c1.146-0.409,1.811,0.113,2.228,1.133c0.665,1.627,1.333,3.253,1.999,4.879
	c6.902,16.86,14.111,33.599,19.927,50.886c0.762,2.265,1.729,4.485,2.836,6.603c1.106,2.116,2.335,4.213,3.809,6.083
	c4.198,5.326,9.768,7.565,16.504,6.683c3.168-0.415,6.339-0.889,9.457-1.572c3.902-0.854,7.769-1.907,11.294-3.889
	c3.801-2.137,6.746-5.154,7.405-9.524c0.841-5.578,0.567-11.192-1.725-16.497c-1.892-4.38-5.158-7.184-9.819-8.416
	c-3.802-1.004-7.604-0.935-11.413-0.267c-2.674,0.469-5.319,1.103-7.969,1.698c-0.971,0.218-1.539-0.248-1.847-1.042
	c-0.345-0.89-0.569-1.828-0.832-2.749c-2.506-8.757-5.013-17.514-7.513-26.273c-1.623-5.686-3.185-11.389-4.874-17.055
	c-0.644-2.162,0.138-2.565,1.749-3.119c4.231-1.454,8.457-2.922,12.678-4.403c24.434-8.574,48.42-18.321,72.552-27.688
	c9.236-3.585,18.537-7.007,27.716-10.729c2.898-1.175,5.446-1.255,8.212,0.098c1.715,0.839,3.576,1.377,5.364,2.071
	c22.047,8.557,44.087,17.132,66.141,25.671c13.114,5.078,26.32,9.903,39.642,14.41c4.354,1.473,4.163,1.009,2.853,5.696
	c-2.107,7.541-4.282,15.063-6.429,22.592c-1.972,6.916-3.912,13.841-5.943,20.739c-0.541,1.838-1.103,2.159-2.77,1.651
	c-0.916-0.279-1.854-0.49-2.789-0.7c-4.068-0.915-8.158-1.61-12.358-1.272c-7.496,0.604-12.418,4.706-14.449,11.945
	c-1.01,3.599-1.052,7.261-1.007,10.946c0.056,4.677,2.135,8.279,5.838,10.999c2.211,1.624,4.711,2.678,7.314,3.518
	c5.35,1.725,10.849,2.797,16.423,3.296c5.169,0.463,9.787-1.112,13.586-4.793c1.975-1.913,3.6-4.102,4.796-6.552
	c1.4-2.868,2.814-5.761,3.841-8.773c6.197-18.171,13.845-35.765,21.075-53.526c0.418-1.028,0.669-2.147,1.64-2.852
	c1.174-0.125,2.157,0.441,3.205,0.804c6.039,2.09,12.061,4.236,18.142,6.199c17.029,5.497,34.167,10.655,50.874,17.117
	c13.718,5.306,27.384,10.724,40.554,17.299c3.573,1.783,7.063,3.742,10.524,5.736c2.524,1.454,2.511,1.565,1.209,4.066
	c-1.04,1.997-1.949,4.003-2.195,6.29c-0.683,6.356,0.877,12.04,4.863,17.059c5.046,6.353,11.492,10.639,19.316,12.66
	c9.585,2.477,18.255,0.536,25.037-6.84c8.983-9.769,11.617-21.417,8.745-34.302c-0.961-4.309-3.209-7.934-6.384-11.058
	c-6.54-6.435-13.908-11.775-21.623-16.665c-10.819-6.858-22.14-12.8-33.718-18.26c-32.445-15.302-66.053-27.546-100.308-38.081
	c-1.505-0.463-3.13-0.618-4.345-1.71c-0.22-1.038,0.119-1.936,0.381-2.855c4.08-14.291,8.092-28.602,12.259-42.868
	c1.248-4.273,0.314-4.623,5.863-3.204c4.041,1.033,8.145,1.667,12.344,1.389c7.595-0.504,12.514-4.388,14.648-11.665
	c0.86-2.932,1.075-5.964,1.223-9.006c0.313-6.445-2.566-11.04-8.072-14.141c-0.973-0.548-1.961-1.091-2.994-1.511
	c-6.122-2.49-12.515-3.92-19.086-4.367c-5.785-0.393-10.64,1.73-14.437,6.169c-2.098,2.453-3.762,5.193-4.981,8.159
	c-1.578,3.84-3.047,7.729-4.425,11.646c-6.209,17.654-13.914,34.71-20.742,52.116c-0.173,0.442-0.395,0.882-0.681,1.257
	c-0.285,0.373-0.663,0.688-1.222,0.479c-1.046-0.392-2.101-0.762-3.146-1.158c-20.02-7.594-40.042-15.184-60.058-22.79
	C858.224,743.132,850.624,740.204,842.855,737.23z"/>
<path fill="#747372" d="M869.396,1415.013c0-10.876,0.12-21.753-0.031-32.626c-0.183-13.271-0.583-26.54-0.918-39.809
	c-0.048-1.916-0.298-3.826-0.38-5.741c-0.107-2.51,0.21-2.842,2.549-2.936c0.479-0.019,0.96-0.007,1.439-0.007
	c8.637,0,17.273,0,25.91,0c0.32,0,0.64-0.006,0.96,0.003c2.973,0.082,3.132,0.257,3.023,3.418c-0.027,0.799-0.103,1.596-0.15,2.394
	c-0.103,1.755-0.252,3.509-0.294,5.266c-0.931,39.176-1.081,78.358-0.946,117.542c0.003,0.958,0.007,1.92,0.092,2.873
	c0.078,0.878,0.589,1.485,1.494,1.573c0.952,0.092,1.914,0.099,2.872,0.1c14.554,0.005,29.109,0.006,43.663,0
	c0.958,0,1.918-0.016,2.872-0.093c0.94-0.075,1.391-0.714,1.441-1.592c0.064-1.116,0.055-2.238,0.054-3.357
	c-0.012-22.711,0.094-45.423-0.081-68.133c-0.141-18.23-0.615-36.456-0.959-54.684c-0.106-5.595-0.441-5.315,5.001-5.312
	c7.997,0.004,15.994-0.003,23.991,0.006c1.117,0.001,2.235,0.041,3.349,0.119c0.723,0.05,1.176,0.525,1.22,1.229
	c0.07,1.113,0.109,2.236,0.044,3.348c-1.154,19.807-0.831,39.648-1.387,59.47c-0.304,10.865-0.233,21.744,0.113,32.62
	c0.336,10.549,0.384,21.108,0.555,31.662c0.077,4.777-0.012,4.738,4.84,4.725c5.278-0.014,10.556-0.025,15.834,0.026
	c2.156,0.021,2.516,0.343,2.373,2.59c-0.418,6.539-0.894,13.077-1.473,19.603c-0.777,8.755-1.764,17.491-2.49,26.25
	c-0.673,8.124-1.112,16.266-1.672,24.399c-0.112,1.634-0.47,2.061-1.989,2.068c-7.037,0.032-14.074,0.016-21.111-0.004
	c-1.118-0.003-1.788-0.608-1.83-1.753c-0.047-1.278-0.041-2.558-0.047-3.838c-0.066-13.435-0.117-26.87-0.2-40.304
	c-0.026-4.207-0.062-4.254-4.228-4.256c-32.787-0.013-65.575-0.007-98.362-0.009c-1.439,0-2.881,0.032-4.317-0.044
	c-1.684-0.089-2.221-0.666-2.163-2.447c0.078-2.396,0.376-4.786,0.409-7.181C868.787,1459.785,869.802,1437.409,869.396,1415.013z"
	/>
<path fill="#747372" d="M111.159,1410.108c0-8.359,0.152-19.558-0.038-30.75c-0.239-14.07-0.757-28.135-1.156-42.202
	c-0.018-0.635-0.13-1.283-0.044-1.903c0.09-0.651,0.468-1.214,1.22-1.252c1.276-0.066,2.554-0.093,3.832-0.104
	c14.074-0.13,28.153-0.086,42.222-0.447c7.684-0.197,15.343-0.308,23.005,0.286c6.555,0.508,12.999,1.592,19.234,3.749
	c4.104,1.42,7.949,3.315,11.45,5.924c5.5,4.099,8.925,9.551,10.5,16.144c1.751,7.332,1.254,14.623-1.072,21.761
	c-1.933,5.932-5.445,10.806-10.335,14.695c-3.026,2.407-6.333,4.323-9.883,5.829c-1.176,0.499-2.403,0.883-3.567,1.408
	c-0.684,0.309-1.577,0.572-1.429,1.622c0.115,0.819,0.875,0.806,1.457,0.958c1.237,0.322,2.489,0.585,3.727,0.9
	c6.916,1.757,13.129,4.903,18.786,9.257c5.555,4.276,9.138,9.826,10.798,16.546c2.234,9.047,1.973,18.089-1.001,26.952
	c-2.969,8.849-8.722,15.506-16.558,20.464c-7.403,4.684-15.576,7.382-24.044,9.236c-8.133,1.78-16.386,2.792-24.714,3.007
	c-16.795,0.434-33.587-0.02-50.379-0.259c-0.638-0.009-1.279-0.048-1.912-0.126c-0.941-0.116-1.411-0.759-1.402-1.63
	c0.017-1.597,0.189-3.192,0.225-4.789C110.633,1461.239,111.592,1437.103,111.159,1410.108z M141.901,1445.325
	c0.097,0,0.194,0,0.291,0c0,2.397-0.077,4.798,0.016,7.192c0.186,4.79,0.443,9.577,0.719,14.363
	c0.089,1.535,0.511,1.932,2.021,2.164c0.788,0.121,1.596,0.117,2.385,0.232c6.544,0.957,13.078,0.284,19.618-0.069
	c4.647-0.251,9.206-1.03,13.705-2.149c3.107-0.773,6.085-1.931,8.848-3.597c3.404-2.052,5.846-4.921,7.362-8.577
	c4.794-11.562,0.261-23.24-11.089-28.505c-3.492-1.62-7.162-2.706-10.96-3.364c-9.979-1.728-20.006-2.076-30.084-1.089
	c-2.704,0.265-2.806,0.301-2.821,3.258C141.878,1431.898,141.901,1438.612,141.901,1445.325z M141.554,1378.429
	c0.067,0,0.134,0,0.201,0c0,2.87-0.01,5.741,0.003,8.611c0.016,3.669,0.036,7.339,0.086,11.008c0.014,1.074,0.517,1.847,1.689,1.878
	c8.771,0.235,17.536,0.473,26.183-1.563c3.281-0.773,6.44-1.802,9.438-3.336c6.34-3.245,9.999-8.439,10.473-15.505
	c0.73-10.864-3.971-19.121-14.915-21.972c-3.567-0.929-7.188-1.392-10.861-1.547c-6.08-0.257-12.103,0.535-18.144,0.99
	c-1.264,0.095-2.508,0.453-3.76,0.697c-0.89,0.173-1.414,0.683-1.367,1.628C140.899,1365.689,141.228,1372.059,141.554,1378.429z"/>
<path fill="#747372" d="M722.641,1384.603c0,3.359-0.017,6.718,0.003,10.077c0.083,13.92-0.521,27.812-1.539,41.692
	c-0.091,1.24-1.089,3.237,0.831,3.667c1.368,0.307,1.691-1.653,2.297-2.707c3.755-6.539,8.31-12.518,12.89-18.477
	c9.946-12.938,20.629-25.27,31.12-37.76c6.688-7.963,13.121-16.125,18.899-24.784c2.667-3.997,5.106-8.121,7.131-12.482
	c1.078-2.323,1.98-4.703,2.478-7.236c0.519-2.641,0.575-2.676,3.477-2.689c6.558-0.03,13.116-0.01,19.673-0.009
	c0.48,0,0.961-0.008,1.439,0.024c1.583,0.106,2.046,0.5,2.05,1.993c0.005,1.918-0.088,3.837-0.166,5.754
	c-0.206,5.112-0.456,10.222-0.637,15.334c-0.968,27.338-1.132,54.687-0.812,82.036c0.185,15.828,0.564,31.655,1.495,47.464
	c0.324,5.51,0.702,5.358-4.86,5.349c-8.157-0.015-16.315-0.003-24.472-0.005c-0.96,0-1.922,0.027-2.878-0.033
	c-1.429-0.09-1.862-0.64-1.819-2.2c0.013-0.479,0.071-0.957,0.101-1.436c0.223-3.509,0.462-7.016,0.662-10.526
	c0.974-17.096,0.902-34.212,0.866-51.324c-0.024-11.682,0.75-23.335,1.043-35.004c0.024-0.959,0.108-1.921,0.07-2.877
	c-0.036-0.897,0.466-2.156-0.582-2.569c-1.544-0.609-1.706,1.04-2.192,1.882c-5.62,9.737-12.598,18.501-19.629,27.206
	c-8.943,11.071-18.126,21.948-27.142,32.961c-5.979,7.303-11.718,14.797-16.84,22.734c-3.904,6.049-7.74,12.158-9.193,19.378
	c-0.272,1.354-1.126,1.801-2.395,1.799c-7.197-0.009-14.395,0.018-21.592-0.024c-1.819-0.011-2.226-0.498-2.22-2.319
	c0.005-1.438,0.079-2.878,0.168-4.315c2.256-36.108,1.896-72.251,1.401-108.394c-0.12-8.793-0.529-17.583-0.86-26.371
	c-0.145-3.833-0.44-7.661-0.646-11.492c-0.06-1.117-0.088-2.239-0.052-3.356c0.028-0.887,0.489-1.504,1.439-1.578
	c0.795-0.062,1.596-0.086,2.394-0.087c8.797-0.006,17.594-0.006,26.391,0c0.798,0,1.597,0.039,2.393,0.093
	c0.754,0.051,1.144,0.579,1.236,1.236c0.087,0.62-0.014,1.267-0.034,1.902C723.551,1352.953,722.544,1368.762,722.641,1384.603z"/>
<path fill="#747372" d="M520.133,1410.771c-0.342-19.274-0.69-40.221-1.105-61.167c-0.089-4.474-0.467-8.941-0.623-13.414
	c-0.065-1.86,0.348-2.259,2.254-2.265c9.916-0.031,19.833-0.031,29.749,0.001c1.84,0.006,2.244,0.434,2.183,2.341
	c-0.098,3.035-0.403,6.063-0.496,9.098c-0.167,5.435-0.237,10.873-0.355,16.31c-0.211,9.752-0.429,19.504-0.637,29.257
	c-0.024,1.119-0.039,2.24,0.005,3.358c0.092,2.365,0.389,2.68,2.886,2.727c3.038,0.057,6.078,0.02,9.116,0.02
	c14.395,0.001,28.789,0,43.184,0c1.12,0,2.24,0.021,3.359-0.009c2.578-0.07,2.82-0.287,2.903-2.654
	c0.039-1.118,0.018-2.239,0.002-3.358c-0.197-13.431-0.021-26.868-0.827-40.288c-0.249-4.149-0.218-8.313-0.342-12.47
	c-0.137-4.579-0.013-4.369,4.506-4.365c6.718,0.006,13.435,0,20.153,0.002c2.399,0.001,4.799-0.028,7.197,0.027
	c1.774,0.041,2.234,0.553,2.143,2.352c-1.758,34.84-1.682,69.704-1.296,104.568c0.177,15.988,0.814,31.971,1.245,47.956
	c0.013,0.479,0.111,0.961,0.073,1.434c-0.072,0.903-0.587,1.453-1.505,1.539c-0.635,0.059-1.277,0.071-1.915,0.071
	c-8.957,0.004-17.914,0.003-26.87,0.001c-0.639,0-1.279-0.013-1.918-0.038c-1.121-0.043-1.789-0.606-1.818-1.752
	c-0.032-1.278-0.014-2.559,0.013-3.837c0.304-14.549,0.633-29.098,0.912-43.648c0.092-4.797,0.061-9.596,0.084-14.394
	c0.005-0.96,0.022-1.92-0.001-2.879c-0.072-3.047-0.101-3.068-3.368-3.144c-0.32-0.007-0.64-0.003-0.96-0.003
	c-17.434,0-34.867-0.01-52.301,0.007c-4.193,0.004-4.262,0.046-4.22,4.257c0.168,16.953,0.359,33.906,0.596,50.859
	c0.056,3.995,0.377,7.986,0.473,11.981c0.049,2.056-0.43,2.529-2.556,2.558c-4.797,0.066-9.596,0.032-14.394,0.034
	c-4.798,0.002-9.597,0.033-14.395-0.016c-2.741-0.028-2.905-0.241-2.884-3.121c0.015-2.079,0.039-4.161,0.17-6.235
	c0.891-14.055,0.703-28.135,1.006-42.204C519.76,1430.996,519.922,1421.722,520.133,1410.771z"/>
<path fill="#747372" d="M348.114,1416.891c0-10.079,0.115-20.16-0.029-30.238c-0.187-13.116-0.554-26.23-0.897-39.343
	c-0.1-3.835-0.399-7.665-0.572-11.499c-0.05-1.112,0.504-1.804,1.672-1.879c0.478-0.031,0.959-0.035,1.439-0.035
	c9.28-0.002,18.559-0.002,27.839-0.001c0.48,0,0.96,0.01,1.439,0.029c1.129,0.045,1.793,0.598,1.799,1.764
	c0.006,1.28,0.02,2.563-0.074,3.838c-0.928,12.616-0.709,25.263-1.064,37.894c-0.139,4.956-0.253,9.913-0.348,14.871
	c-0.021,1.115,0.045,2.236,0.151,3.346c0.066,0.694,0.542,1.17,1.238,1.247c0.949,0.104,1.91,0.145,2.866,0.146
	c17.759,0.008,35.519,0.007,53.278,0.002c0.798,0,1.598-0.035,2.395-0.086c0.966-0.061,1.416-0.709,1.472-1.57
	c0.082-1.275,0.074-2.558,0.058-3.837c-0.146-11.678-0.251-23.358-0.478-35.034c-0.115-5.915-0.461-11.826-0.684-17.74
	c-0.042-1.117-0.042-2.239,0.023-3.354c0.055-0.923,0.661-1.399,1.562-1.453c0.797-0.049,1.598-0.061,2.397-0.061
	c8.8-0.004,17.599-0.003,26.399-0.002c0.64,0,1.282-0.016,1.919,0.027c1.423,0.096,1.865,0.65,1.807,2.203
	c-0.006,0.16-0.038,0.318-0.045,0.477c-0.219,5.273-0.436,10.545-0.654,15.818c-1.372,33.265-0.99,66.542-0.588,99.815
	c0.147,12.151,0.826,24.295,1.26,36.442c0.017,0.479,0.058,0.963,0.013,1.437c-0.084,0.877-0.528,1.51-1.452,1.614
	c-0.791,0.089-1.594,0.111-2.391,0.112c-8.8,0.007-17.599,0.007-26.399,0c-0.798,0-1.598-0.032-2.394-0.092
	c-0.944-0.071-1.442-0.669-1.473-1.559c-0.049-1.438-0.028-2.879,0.008-4.318c0.458-18.391,1.087-36.779,0.985-55.18
	c-0.007-1.28,0.004-2.56,0.011-3.84c0.029-5.007,0.131-4.704-4.698-4.704c-17.279,0-34.558-0.009-51.837,0.006
	c-4.254,0.004-4.32,0.04-4.284,4.173c0.141,15.998,0.297,31.997,0.517,47.994c0.07,5.116,0.388,10.228,0.526,15.344
	c0.042,1.565-0.462,2.051-1.926,2.139c-1.116,0.067-2.239,0.039-3.359,0.039c-7.84,0.003-15.679,0.002-23.519,0.001
	c-0.96,0-1.921,0.027-2.88-0.013c-2.202-0.092-2.584-0.41-2.546-2.497c0.055-3.038,0.219-6.074,0.353-9.11
	c0.056-1.278,0.204-2.553,0.228-3.83c0.381-19.833,0.749-39.667,1.119-59.501C348.238,1416.892,348.176,1416.892,348.114,1416.891z"
	/>
<path fill="#747372" d="M1412.381,1333.9c6.715-0.001,13.431-0.022,20.147,0.011c2.321,0.011,2.487,0.149,3.025,2.192
	c7.045,26.765,16.939,52.59,25.953,78.705c6.411,18.573,12.837,37.14,19.16,55.742c1.746,5.138,3.156,10.39,4.689,15.599
	c0.314,1.068,0.554,2.168,0.713,3.27c0.25,1.73-0.254,2.356-2.039,2.39c-3.357,0.063-6.715,0.033-10.073,0.034
	c-7.835,0.002-15.67,0.023-23.505-0.017c-2.452-0.012-2.526-0.159-2.913-2.732c-1.355-9.027-3.859-17.787-6.229-26.575
	c-1.248-4.625-2.67-9.203-3.952-13.819c-0.445-1.603-1.269-2.517-3.032-2.39c-0.795,0.057-1.598-0.003-2.398-0.003
	c-15.51-0.001-31.02-0.001-46.529,0.001c-0.959,0-1.919,0.002-2.877,0.037c-1.05,0.039-1.822,0.495-2.15,1.554
	c-0.142,0.458-0.306,0.909-0.447,1.367c-3.619,11.755-7.223,23.516-9.654,35.593c-0.346,1.719-0.505,3.476-0.786,5.209
	c-0.176,1.088-0.87,1.666-1.964,1.723c-0.798,0.042-1.598,0.049-2.397,0.05c-9.274,0.003-18.548,0.002-27.822,0.001
	c-0.64,0-1.28,0.017-1.918-0.018c-1.991-0.107-2.45-0.746-1.957-2.8c0.223-0.93,0.512-1.849,0.834-2.75
	c3.44-9.627,6.75-19.303,10.37-28.862c10.354-27.341,20.881-54.616,31.244-81.954c4.133-10.903,8.208-21.834,11.526-33.024
	c0.635-2.141,1.162-4.314,1.722-6.476c0.472-1.823,0.625-2.034,2.634-2.045C1398.63,1333.877,1405.505,1333.901,1412.381,1333.9z
	 M1387.228,1422.723c1.517,0.793,3.135,0.45,4.695,0.454c11.018,0.03,22.035,0.018,33.053,0.015c6.239-0.002,5.583,0.35,3.747-5.303
	c-5.812-17.902-11.832-35.738-16.966-53.853c-0.695-2.451-1.287-4.932-1.97-7.386c-0.066-0.236-0.412-0.457-0.677-0.561
	c-0.527-0.207-0.913,0.102-1.142,0.539c-0.219,0.419-0.399,0.873-0.507,1.333c-1.527,6.532-3.598,12.905-5.691,19.266
	c-4.437,13.487-8.97,26.942-13.405,40.43C1387.831,1419.281,1386.802,1420.84,1387.228,1422.723z"/>
<path fill="#747372" d="M1216.253,1744.334c-1.126-6.089-2.241-12.214-3.895-18.215c-2.206-8.006-4.416-16.011-6.689-23.998
	c-0.691-2.426-0.834-2.505-3.349-2.516c-8.634-0.037-17.268-0.017-25.902-0.017c-8.154,0-16.309-0.018-24.463,0.012
	c-2.78,0.01-2.972,0.092-3.735,2.686c-3.743,12.711-7.93,25.308-10.115,38.429c-0.131,0.788-0.35,1.563-0.448,2.354
	c-0.14,1.116-0.691,1.723-1.844,1.73c-0.479,0.003-0.959,0.033-1.438,0.033c-10.233,0.001-20.466,0.002-30.698-0.011
	c-0.623-0.001-1.246-0.128-2.055-0.217c-0.466-1.724,0.281-3.183,0.776-4.604c2.943-8.446,5.806-16.925,8.976-25.287
	c10.813-28.532,21.783-57.005,32.608-85.532c3.967-10.454,7.808-20.959,11.108-31.649c0.895-2.898,1.711-5.823,2.47-8.759
	c0.296-1.142,0.963-1.555,2.03-1.57c0.799-0.011,1.599-0.02,2.398-0.02c12.471-0.001,24.943-0.003,37.414,0.004
	c0.957,0,1.917,0.033,2.871,0.104c0.697,0.052,1.156,0.467,1.331,1.151c0.592,2.32,1.111,4.66,1.77,6.961
	c4.793,16.748,10.6,33.165,16.309,49.612c9.218,26.559,18.96,52.936,27.563,79.706c1.709,5.32,3.203,10.709,4.757,16.078
	c0.263,0.907,0.355,1.869,0.474,2.812c0.069,0.549-0.336,0.893-0.781,1.039c-0.444,0.146-0.943,0.168-1.417,0.167
	c-11.67-0.02-23.341-0.05-35.011-0.086C1217.119,1744.73,1216.973,1744.621,1216.253,1744.334z M1155.301,1676.112
	c4.189,0.531,38.765,0.503,42.562-0.029c0.552-1.31-0.037-2.488-0.43-3.691c-1.933-5.913-3.902-11.813-5.785-17.742
	c-4.585-14.438-9.586-28.75-13.161-43.494c-0.111-0.458-0.3-0.917-0.547-1.317c-0.148-0.239-0.539-0.557-0.718-0.502
	c-0.412,0.125-1.003,0.385-1.1,0.714c-1.221,4.129-2.223,8.326-3.556,12.416c-5.337,16.378-10.772,32.724-16.167,49.082
	C1155.906,1673.039,1155.095,1674.457,1155.301,1676.112z"/>
<path fill="#747372" d="M748.931,1744.403c-0.342-2.12,0.625-3.867,1.207-5.652c4.059-12.46,8.713-24.709,13.384-36.948
	c8.375-21.941,16.88-43.833,25.229-65.784c4.998-13.139,9.913-26.314,14.076-39.75c0.755-2.437,1.314-4.935,1.99-7.398
	c0.275-1.003,0.862-1.678,2.017-1.659c0.799,0.013,1.599-0.028,2.398-0.028c12.472-0.002,24.945-0.004,37.417,0.002
	c0.958,0,1.918,0.018,2.872,0.096c0.686,0.056,1.142,0.504,1.393,1.136c0.117,0.295,0.207,0.604,0.279,0.914
	c3.101,13.414,7.74,26.358,12.207,39.341c8.835,25.681,17.919,51.276,26.827,76.932c3.772,10.863,7.535,21.739,10.469,32.867
	c1.866,7.074,2.495,6.335-4.815,6.359c-9.114,0.03-18.229,0.008-27.343,0.006c-1.119,0-2.239-0.005-3.357-0.035
	c-1.071-0.028-1.828-0.475-1.989-1.627c-1.889-13.504-6.064-26.443-9.743-39.505c-0.216-0.768-0.429-1.538-0.662-2.301
	c-0.369-1.213-1.151-1.841-2.465-1.776c-0.797,0.04-1.599-0.004-2.398-0.004c-15.67-0.001-31.341-0.002-47.011,0.003
	c-1.117,0-2.236,0.027-3.351,0.101c-0.684,0.045-1.176,0.467-1.453,1.087c-0.194,0.435-0.339,0.893-0.479,1.35
	c-3.775,12.375-7.628,24.73-10.067,37.464c-0.03,0.157-0.063,0.314-0.108,0.467c-0.4,1.365,0.152,3.062-0.86,4.122
	c-1.221,1.278-3.037,0.622-4.587,0.631c-8.794,0.048-17.589,0.036-26.384,0.011C752.057,1744.821,750.442,1745.091,748.931,1744.403
	z M802.696,1676.133c1.538,0.569,3.134,0.338,4.691,0.34c11.018,0.019,22.036,0.008,33.055,0.011
	c6.131,0.002,5.784,0.345,3.96-5.262c-6.515-20.022-13.337-39.947-18.765-60.307c-0.12-0.451-0.268-0.938-0.549-1.291
	c-0.308-0.385-0.931-0.481-1.185-0.032c-0.46,0.815-0.811,1.711-1.078,2.611c-1.272,4.28-2.382,8.611-3.767,12.853
	c-5.001,15.315-10.099,30.599-15.131,45.904C803.39,1672.594,802.447,1674.151,802.696,1676.133z"/>
<path fill="#747372" d="M1193.18,1412.425c0.083-21.764-0.815-43.508-1.183-65.259c-0.062-3.674-0.435-7.343-0.566-11.017
	c-0.066-1.846,0.326-2.22,2.287-2.226c9.919-0.03,19.837-0.025,29.756,0.009c1.578,0.005,2.002,0.492,2.06,1.991
	c0.031,0.798,0.011,1.601-0.045,2.398c-0.876,12.457-0.643,24.943-0.964,37.414c-0.156,6.076-0.279,12.153-0.405,18.229
	c-0.023,1.119,0.004,2.239,0.025,3.359c0.022,1.123,0.605,1.781,1.719,1.897c11.056,1.142,20.965-1.193,29.032-9.385
	c4.787-4.861,8.287-10.548,11.084-16.698c3.59-7.894,5.941-16.194,7.797-24.641c0.446-2.027,0.747-4.086,1.178-6.117
	c0.298-1.406,0.617-2.818,1.08-4.176c1.369-4.016,1.792-4.295,6.216-4.303c7.999-0.014,15.998-0.005,23.997-0.002
	c0.8,0,1.601-0.006,2.399,0.037c1.331,0.071,1.775,0.629,1.458,1.79c-0.084,0.307-0.201,0.607-0.32,0.903
	c-3.228,8.019-5.379,16.396-8.159,24.564c-2.114,6.211-4.55,12.284-7.424,18.191c-5.95,12.23-14.854,21.483-27.169,27.376
	c-0.719,0.344-1.425,0.722-2.11,1.129c-0.555,0.33-0.519,1.311,0.07,1.576c1.018,0.459,2.064,0.858,3.1,1.276
	c10.626,4.286,18.808,11.295,24.296,21.445c4.347,8.04,7.833,16.453,11.099,24.96c2.462,6.415,4.653,12.933,7.04,19.378
	c1.665,4.495,3.467,8.94,5.186,13.416c0.435,1.133-0.037,1.798-1.309,1.863c-1.117,0.057-2.239,0.045-3.358,0.046
	c-9.279,0.003-18.557,0.001-27.836,0.001c-0.48,0-0.97-0.065-1.438,0.01c-2.767,0.443-4.127-1.023-4.866-3.454
	c-0.976-3.21-2.109-6.374-2.99-9.609c-2.563-9.411-5.285-18.769-8.803-27.876c-1.499-3.879-3.161-7.685-5.104-11.369
	c-5.601-10.62-14.647-15.685-26.38-16.357c-2.385-0.137-4.798-0.001-7.186,0.175c-1.668,0.123-2.271,0.813-2.296,2.464
	c-0.053,3.519-0.055,7.04,0.011,10.558c0.265,14.234,0.544,28.469,0.864,42.702c0.079,3.516,0.379,7.025,0.49,10.541
	c0.047,1.484-0.534,2.029-1.962,2.161c-0.636,0.058-1.278,0.051-1.918,0.051c-8.959,0.003-17.918,0.004-26.876-0.003
	c-0.638,0-1.278-0.032-1.912-0.099c-0.943-0.099-1.435-0.715-1.419-1.603c0.048-2.718,0.145-5.436,0.26-8.152
	c0.068-1.597,0.273-3.19,0.303-4.786C1192.397,1455.608,1192.786,1434.016,1193.18,1412.425z"/>
<path fill="#747372" d="M731.047,1744.486c-0.947,0.519-2.087,0.342-3.194,0.344c-10.079,0.013-20.157,0.008-30.236,0.006
	c-0.64,0-1.28-0.036-1.919-0.019c-1.298,0.034-2.076-0.667-2.544-1.787c-1.234-2.953-2.264-5.969-3.095-9.066
	c-2.775-10.345-5.702-20.646-9.635-30.626c-1.701-4.316-3.554-8.563-5.959-12.551c-5.278-8.752-13.19-13.243-23.193-14.198
	c-2.853-0.272-5.755-0.133-8.63-0.04c-2.302,0.074-2.603,0.498-2.694,2.966c-0.029,0.799-0.013,1.6-0.005,2.4
	c0.149,14.397,0.262,28.795,0.473,43.191c0.07,4.795,0.398,9.586,0.596,14.38c0.046,1.119,0.086,2.24,0.055,3.358
	c-0.04,1.44-0.518,1.86-2.091,1.966c-0.319,0.021-0.639,0.024-0.959,0.024c-9.279,0.002-18.557,0.005-27.836-0.001
	c-0.637,0-1.28-0.023-1.908-0.12c-0.677-0.104-1.172-0.484-1.223-1.234c-0.032-0.476-0.044-0.957-0.021-1.433
	c0.139-2.875,0.34-5.747,0.431-8.623c1.132-35.662,1.381-71.333,0.83-107.006c-0.188-12.15-0.814-24.294-1.237-36.44
	c-0.017-0.477-0.043-0.96,0.007-1.432c0.074-0.7,0.459-1.177,1.194-1.251c0.634-0.064,1.274-0.104,1.911-0.104
	c9.119-0.006,18.238-0.023,27.356,0.005c3.551,0.011,3.585,0.06,3.544,3.397c-0.037,3.039-0.149,6.077-0.243,9.115
	c-0.202,6.553-0.491,13.105-0.604,19.66c-0.158,9.117-0.19,18.236-0.27,27.355c-0.011,1.279-0.003,2.56,0.03,3.839
	c0.028,1.062,0.442,1.815,1.636,1.933c11.262,1.114,21.259-1.443,29.322-9.884c4.025-4.214,7.13-9.02,9.674-14.219
	c3.959-8.091,6.499-16.662,8.499-25.407c0.677-2.959,1.22-5.948,1.863-8.915c0.236-1.089,0.504-2.183,0.897-3.222
	c1.32-3.487,1.525-3.643,5.194-3.653c8.479-0.024,16.958-0.011,25.437,0c0.794,0.001,1.59,0.079,2.382,0.155
	c0.582,0.056,0.806,0.555,0.786,1.001c-0.027,0.625-0.168,1.275-0.405,1.855c-2.903,7.119-4.845,14.554-7.244,21.839
	c-2.352,7.144-5.085,14.126-8.397,20.893c-5.911,12.078-14.81,21.116-26.894,27.016c-0.574,0.28-1.182,0.51-1.711,0.858
	c-0.37,0.243-0.865,0.638-0.88,0.984c-0.015,0.348,0.42,0.871,0.788,1.052c1.001,0.49,2.077,0.825,3.113,1.248
	c10.448,4.265,18.535,11.172,23.899,21.194c4.31,8.053,7.783,16.468,11.13,24.949c4.226,10.706,7.465,21.778,12.034,32.355
	C731.362,1743.187,731.48,1743.811,731.047,1744.486z"/>
<path fill="#747372" d="M454.727,1666.075c0-15.677,0.101-31.354-0.039-47.029c-0.079-8.793-0.557-17.583-0.851-26.375
	c-0.043-1.279-0.105-2.559-0.076-3.837c0.02-0.89,0.495-1.492,1.452-1.563c0.637-0.047,1.277-0.084,1.915-0.084
	c9.118-0.005,18.236-0.004,27.354-0.001c0.479,0,0.959,0.018,1.438,0.041c1.194,0.058,1.659,0.775,1.649,1.879
	c-0.011,1.279-0.015,2.561-0.083,3.838c-0.779,14.7-0.856,29.416-1.05,44.13c-0.017,1.28-0.023,2.559-0.05,3.839
	c-0.09,4.307,0.089,4.207,4.212,4.128c7.355-0.142,14.722-0.361,22.069-0.103c9.606,0.337,19.099,1.678,28.288,4.695
	c3.962,1.301,7.774,2.943,11.384,5.034c9.904,5.737,16.465,14.076,19.207,25.224c2.213,8.994,2.281,18.071,0.069,27.078
	c-2.595,10.567-8.598,18.779-17.664,24.782c-8.11,5.37-17.06,8.724-26.476,10.855c-8.122,1.838-16.365,2.951-24.709,2.982
	c-15.195,0.056-30.392,0.161-45.575-0.661c-0.639-0.035-1.28-0.049-1.916-0.112c-0.898-0.088-1.495-0.55-1.508-1.501
	c-0.02-1.438-0.001-2.877,0.035-4.315C454.396,1714.695,455.29,1690.395,454.727,1666.075z M500.149,1668.812
	c-3.191,0-6.385-0.073-9.573,0.018c-4.209,0.121-4.278,0.177-4.236,4.328c0.145,14.364,0.34,28.727,0.53,43.091
	c0.015,1.115,0.088,2.235,0.226,3.341c0.245,1.958,0.678,2.521,2.697,2.675c9.888,0.753,19.762,1.059,29.491-1.49
	c3.258-0.854,6.377-2.03,9.301-3.71c5.843-3.356,9.561-8.258,11.156-14.849c0.803-3.32,0.859-6.651,0.646-9.988
	c-0.504-7.888-4.123-13.94-11.003-17.961c-3.905-2.282-8.152-3.586-12.555-4.482
	C511.318,1668.665,505.737,1668.597,500.149,1668.812z"/>
<path fill="#747372" d="M1039.474,1417.786c0-8.561-0.032-14.319,0.006-20.076c0.118-18.075-0.732-36.13-1.071-54.195
	c-0.039-2.074-0.328-4.141-0.458-6.214c-0.194-3.093,0.022-3.383,3.011-3.393c9.275-0.032,18.551-0.012,27.826-0.012
	c0.32,0,0.64-0.004,0.959,0.013c1.984,0.104,2.292,0.38,2.306,2.214c0.009,1.119-0.015,2.241-0.103,3.356
	c-0.804,10.214-0.623,20.454-0.867,30.683c-0.141,5.914-0.337,11.826-0.502,17.74c-0.022,0.799-0.043,1.6,0.003,2.397
	c0.071,1.215,0.617,1.789,1.773,1.779c1.116-0.01,2.23-0.146,3.346-0.216c13.935-0.875,27.806-0.534,41.516,2.389
	c6.908,1.473,13.564,3.683,19.678,7.321c11.285,6.715,17.881,16.539,19.941,29.536c1.143,7.211,1.057,14.364-0.514,21.441
	c-2.389,10.76-8.198,19.298-17.341,25.548c-7.899,5.4-16.646,8.811-25.875,11.03c-7.628,1.834-15.378,2.958-23.238,3.112
	c-16.153,0.317-32.302-0.093-48.452-0.316c-0.479-0.007-0.961-0.015-1.437-0.065c-1.498-0.158-2.021-0.655-2.074-2.07
	c-0.036-0.957-0.022-1.922,0.062-2.875c0.69-7.816,0.565-15.657,0.764-23.488C1039.142,1447.28,1039.658,1431.136,1039.474,1417.786
	z M1071.023,1442.407c0,1.058-0.017,2.177,0.003,3.297c0.117,6.716,0.21,13.432,0.382,20.147c0.068,2.642,0.428,2.901,3.078,3.219
	c7.339,0.881,14.682,0.84,22.003-0.079c4.605-0.578,9.108-1.645,13.399-3.518c8.458-3.692,13.579-10.026,14.773-19.186
	c1.638-12.562-2.805-23.023-16.476-27.836c-0.753-0.265-1.513-0.518-2.283-0.73c-4.638-1.276-9.358-2.17-14.165-2.267
	c-5.593-0.113-11.192,0.021-16.788,0.078c-0.953,0.01-1.915,0.115-2.856,0.276c-0.858,0.147-1.45,0.711-1.516,1.603
	c-0.083,1.114-0.076,2.237-0.069,3.356C1070.556,1427.962,1070.462,1435.16,1071.023,1442.407z"/>
<path fill="#747372" d="M985.782,1664.482c0-8.313,0.136-18.548-0.033-28.778c-0.24-14.545-0.692-29.087-1.079-43.629
	c-0.138-5.18-0.364-4.87,4.891-4.896c10.712-0.053,21.431,0.065,32.135-0.27c8.15-0.254,16.298-0.642,24.45-0.481
	c9.815,0.194,19.408,1.72,28.494,5.656c4.715,2.042,9.152,4.552,13.048,7.953c6.43,5.614,10.2,12.737,11.213,21.116
	c0.943,7.804,0.657,15.612-1.38,23.315c-2.953,11.166-9.174,19.925-18.777,26.294c-9.598,6.366-20.183,10.278-31.45,12.39
	c-7.873,1.476-15.827,2.159-23.847,1.959c-1.438-0.036-2.878-0.016-4.317-0.023c-1.128-0.005-1.821,0.49-1.866,1.673
	c-0.036,0.958-0.05,1.918-0.038,2.877c0.158,12.151,0.285,24.302,0.504,36.452c0.08,4.473,0.382,8.942,0.573,13.413
	c0.041,0.958,0.071,1.919,0.051,2.877c-0.043,2.129-0.285,2.344-2.598,2.447c-0.16,0.007-0.32,0.004-0.48,0.004
	c-9.114,0.001-18.228,0.003-27.342-0.003c-0.638,0-1.277-0.04-1.912-0.1c-0.956-0.091-1.386-0.71-1.393-1.602
	c-0.011-1.438,0.029-2.877,0.069-4.315C985.365,1714.681,986.143,1690.55,985.782,1664.482z M1026.696,1663.059
	c4.217,0.24,8.986-0.374,13.718-1.126c5.059-0.804,9.973-2.174,14.578-4.556c7.896-4.085,12.416-10.549,13.092-19.334
	c1.05-13.656-4.658-23.253-18.428-26.897c-10.419-2.758-20.912-2.182-31.407-0.545c-2.263,0.353-2.611,0.855-2.514,3.231
	c0.189,4.632,0.589,9.257,0.691,13.889c0.211,9.593,0.285,19.19,0.413,28.785c0.013,0.96-0.011,1.92,0.019,2.879
	c0.105,3.42,0.237,3.578,3.476,3.664C1022.251,1663.101,1024.171,1663.059,1026.696,1663.059z"/>
<path fill="#747372" d="M388.176,1585.163c7.503-0.204,14.961,0.545,22.345,2.067c1.25,0.257,2.483,0.598,3.72,0.914
	c0.914,0.233,1.327,0.902,1.221,1.773c-0.25,2.06-0.576,4.111-0.891,6.162c-0.946,6.156-1.885,12.314-2.866,18.465
	c-0.204,1.279-0.798,1.68-2.024,1.309c-4.749-1.439-9.565-2.651-14.48-3.228c-11.047-1.297-22.016-1.367-32.536,3.119
	c-6.166,2.63-11.294,6.563-15.343,11.913c-7.059,9.328-10.729,19.907-11.495,31.506c-0.518,7.849-0.254,15.664,1.99,23.289
	c3.189,10.834,8.763,20.188,17.368,27.601c7.115,6.129,15.507,9.315,24.724,10.696c10.284,1.542,20.396,0.406,30.47-1.589
	c3.286-0.651,6.522-1.551,9.792-2.289c1.462-0.33,2.016,0.187,2.039,1.737c0.002,0.16-0.001,0.32-0.013,0.479
	c-0.601,7.806-1.207,15.611-1.802,23.417c-0.105,1.377-0.981,1.871-2.199,2.083c-5.191,0.903-10.348,2.088-15.573,2.681
	c-6.662,0.755-13.365,1.329-20.096,0.991c-10.563-0.531-21.005-1.756-31.083-5.206c-22.228-7.608-36.857-23.007-45.13-44.611
	c-4.885-12.757-5.884-26.073-4.347-39.642c2.147-18.954,10.034-35.184,22.913-49.075c9.934-10.715,22.113-17.736,36.205-21.47
	C369.947,1585.905,378.974,1584.908,388.176,1585.163z"/>
<path fill="#747372" d="M269.493,1412.985c-0.337-20.786-0.651-41.572-1.033-62.357c-0.076-4.153-0.424-8.301-0.622-12.453
	c-0.045-0.954-0.029-1.917,0.037-2.87c0.048-0.689,0.455-1.182,1.174-1.278c0.631-0.084,1.272-0.125,1.909-0.125
	c9.276-0.008,18.551-0.008,27.827-0.002c0.637,0,1.276,0.045,1.91,0.109c0.736,0.074,1.149,0.565,1.212,1.247
	c0.072,0.79,0.036,1.593,0.001,2.388c-0.191,4.311-0.44,8.62-0.591,12.933c-1.073,30.693-1.116,61.396-0.728,92.099
	c0.165,13.11,0.602,26.217,0.95,39.325c0.068,2.555,0.35,5.104,0.432,7.659c0.047,1.462-0.537,2.008-1.981,2.135
	c-0.636,0.057-1.278,0.048-1.917,0.048c-8.796,0.003-17.592,0.003-26.387,0.001c-0.64,0-1.281,0.015-1.918-0.032
	c-1.481-0.107-1.995-0.58-1.971-2.093c0.06-3.837,0.184-7.673,0.315-11.509c0.158-4.633,0.433-9.263,0.51-13.897
	c0.208-12.472,0.353-24.946,0.49-37.419c0.051-4.635,0.008-9.272,0.008-13.908C269.243,1412.985,269.368,1412.985,269.493,1412.985z
	"/>
<path fill="#747372" d="M263.232,1662.873c0.313,22.57,0.55,41.92,0.871,61.268c0.088,5.274,0.439,10.542,0.649,15.814
	c0.045,1.116,0.033,2.237-0.005,3.354c-0.033,0.961-0.667,1.385-1.547,1.466c-0.635,0.058-1.278,0.059-1.917,0.059
	c-9.116,0.004-18.233,0.004-27.349-0.001c-0.638,0-1.281-0.008-1.912-0.091c-0.914-0.121-1.431-0.709-1.391-1.616
	c0.091-2.075,0.318-4.145,0.376-6.22c0.151-5.435,0.178-10.875,0.364-16.309c1.038-30.377,1.005-60.763,0.596-91.147
	c-0.179-13.265-0.86-26.524-1.322-39.786c-0.07-2.013,0.281-2.459,2.504-2.465c9.756-0.027,19.512-0.026,29.268,0.012
	c2.125,0.008,2.381,0.343,2.369,2.628c-0.011,2.078-0.039,4.162-0.187,6.234c-0.999,14.051-0.752,28.131-1.018,42.199
	C263.406,1647.546,263.315,1656.82,263.232,1662.873z"/>
<path fill="#FFFFFF" d="M798.287,598.855c-0.584,0.402-0.902,0.536-1.101,0.771c-8.524,10.03-19.687,15.584-32.151,18.881
	c-8.213,2.172-16.583,3.434-25.059,3.971c-4.628,0.293-9.26,0.523-13.888,0.812c-7.074,0.441-14.016-0.332-20.936-1.847
	c-17.3-3.786-33.803-9.625-49.024-18.775c-29.152-17.523-48.262-42.852-58.077-75.287c-4.378-14.469-6.525-29.315-6.839-44.421
	c-0.2-9.603,0.021-19.192,1.054-28.754c0.364-3.37,1.253-6.599,2.377-9.758c6.013-16.891,14.749-32.237,26.341-45.93
	c4.053-4.787,8.725-8.911,13.909-12.441c1.183-0.806,2.439-1.517,3.706-2.187c0.883-0.467,1.672,0.022,1.604,0.954
	c-0.069,0.948-0.145,1.918-0.396,2.828c-4.923,17.821-2.948,35.155,3.659,52.16c2.028,5.22,4.321,10.331,7.089,15.199
	c2.672,4.698,0.494,5.905-3.187,6.552c-2.391,0.42-4.791,0.408-7.173,0.14c-5.718-0.644-11.424-1.397-17.135-2.098
	c-0.95-0.116-1.903-0.223-2.857-0.272c-0.745-0.038-1.145,0.431-1.256,1.127c-0.075,0.471-0.108,0.953-0.109,1.431
	c-0.034,13.502,1.421,26.814,5.188,39.818c1.879,6.487,4.606,12.618,8.209,18.323c13.871,21.964,32.565,38.446,56.327,49.021
	c9.436,4.199,19.318,6.613,29.758,6.423c12.758-0.232,23.778-4.666,32.776-13.679c8.235-8.248,14.706-17.681,18.004-29.046
	c1.479-5.095,2.346-10.291,2.589-15.573c0.213-4.633,0.28-9.275,0.28-13.913c0.008-66.072,0.004-132.144-0.031-198.216
	c-0.004-7.296,0.993-6.231-6.409-6.237c-44.635-0.034-89.269-0.011-133.904-0.026c-5.868-0.002-5.478,0.716-5.48-5.335
	c-0.004-13.758-0.002-27.517-0.001-41.275c0-0.96-0.027-1.922,0.023-2.879c0.094-1.787,0.45-2.122,2.362-2.187
	c1.278-0.044,2.559-0.013,3.839-0.013c44.635,0,89.269,0.01,133.904-0.012c6.406-0.003,5.666,0.825,5.669-5.545
	c0.02-37.755,0.009-75.511,0.009-113.266c0-1.28-0.027-2.561,0.01-3.839c0.07-2.45,0.284-2.651,2.82-2.749
	c0.799-0.031,1.6-0.01,2.4-0.01c13.918,0,27.837-0.003,41.755,0.004c1.278,0.001,2.558,0.018,3.831,0.111
	c0.904,0.067,1.449,0.635,1.477,1.561c0.043,1.439,0.044,2.879,0.044,4.319c0.002,37.915-0.01,75.831,0.01,113.746
	c0.003,6.452-0.718,5.666,5.546,5.669c44.794,0.02,89.589,0.001,134.384,0.022c6.447,0.003,5.856-0.871,5.864,5.907
	c0.016,13.278,0.005,26.557,0.003,39.835c0,1.28,0.031,2.562-0.028,3.839c-0.075,1.611-0.459,2.017-1.971,2.077
	c-1.438,0.057-2.879,0.029-4.319,0.029c-44.474,0.001-88.949,0-133.424,0.005c-1.599,0-3.199,0.018-4.795,0.095
	c-0.708,0.034-1.145,0.526-1.171,1.241c-0.059,1.597-0.095,3.196-0.095,4.794c-0.005,61.272-0.01,122.545,0.003,183.818
	c0.002,8.798,0.035,17.597,0.163,26.394c0.273,18.806,8.004,34.336,21.28,47.249c8.737,8.497,19.373,12.728,31.582,13.078
	c9.768,0.28,19.051-1.848,28.046-5.427c14.618-5.816,27.267-14.66,38.638-25.42c5.357-5.069,10.166-10.624,14.626-16.5
	c8.789-11.581,14.117-24.609,16.532-38.888c1.443-8.533,2.233-17.122,2.231-25.779c0-0.958-0.013-1.918-0.078-2.873
	c-0.068-0.991-0.722-1.375-1.629-1.267c-3.015,0.362-6.023,0.782-9.038,1.146c-3.808,0.459-7.616,0.942-11.434,1.307
	c-2.881,0.275-5.766,0.176-8.547-0.753c-2.02-0.674-2.696-2.151-1.853-4.156c0.556-1.322,1.288-2.571,1.948-3.849
	c4.493-8.693,8.153-17.696,10.346-27.267c2.838-12.387,2.747-24.728-0.348-37.055c-0.404-1.61-1.814-3.674-0.073-4.779
	c1.265-0.804,2.875,0.907,4.172,1.787c5.996,4.068,11.29,8.913,15.874,14.529c9.991,12.241,17.638,25.827,23.577,40.452
	c2.881,7.094,3.947,14.47,4.385,21.987c1.132,19.418,0.196,38.689-4.56,57.644c-6.758,26.934-19.864,50.101-40.902,68.501
	c-14.662,12.823-31.538,21.704-49.975,27.745c-8.825,2.892-17.86,4.929-26.997,6.529c-1.251,0.219-2.548,0.243-3.823,0.249
	c-12.815,0.063-25.576-0.639-38.219-2.864c-7.74-1.362-15.274-3.432-22.417-6.776c-6.74-3.155-12.73-7.341-17.688-12.937
	C799.585,600.183,799.021,599.625,798.287,598.855z"/>
<path fill="#FFFFFF" d="M842.855,737.23c7.77,2.974,15.369,5.902,22.982,8.795c20.016,7.605,40.038,15.196,60.058,22.79
	c1.045,0.396,2.1,0.766,3.146,1.158c0.559,0.21,0.937-0.105,1.222-0.479c0.286-0.374,0.508-0.815,0.681-1.257
	c6.827-17.406,14.533-34.463,20.742-52.116c1.378-3.917,2.847-7.806,4.425-11.646c1.219-2.966,2.883-5.705,4.981-8.159
	c3.797-4.439,8.652-6.562,14.437-6.169c6.571,0.447,12.963,1.877,19.086,4.367c1.032,0.42,2.02,0.963,2.994,1.511
	c5.506,3.101,8.384,7.695,8.072,14.141c-0.148,3.042-0.363,6.074-1.223,9.006c-2.133,7.277-7.053,11.161-14.648,11.665
	c-4.199,0.278-8.303-0.356-12.344-1.389c-5.549-1.418-4.615-1.068-5.863,3.204c-4.168,14.266-8.18,28.577-12.259,42.868
	c-0.262,0.919-0.601,1.817-0.381,2.855c1.215,1.092,2.839,1.247,4.345,1.71c34.255,10.535,67.863,22.779,100.308,38.081
	c11.578,5.46,22.899,11.402,33.718,18.26c7.715,4.89,15.082,10.231,21.623,16.665c3.175,3.124,5.423,6.75,6.384,11.058
	c2.872,12.884,0.238,24.533-8.745,34.302c-6.781,7.375-15.452,9.316-25.037,6.84c-7.824-2.022-14.27-6.307-19.316-12.66
	c-3.987-5.019-5.547-10.702-4.863-17.059c0.246-2.287,1.156-4.293,2.195-6.29c1.302-2.501,1.314-2.611-1.209-4.066
	c-3.461-1.995-6.951-3.953-10.524-5.736c-13.171-6.575-26.836-11.993-40.554-17.299c-16.707-6.462-33.845-11.62-50.874-17.117
	c-6.081-1.963-12.102-4.109-18.142-6.199c-1.048-0.362-2.031-0.929-3.205-0.804c-0.971,0.706-1.222,1.825-1.64,2.852
	c-7.23,17.761-14.878,35.356-21.075,53.526c-1.027,3.012-2.441,5.905-3.841,8.773c-1.196,2.45-2.822,4.639-4.796,6.552
	c-3.799,3.68-8.417,5.255-13.586,4.793c-5.574-0.499-11.073-1.57-16.423-3.296c-2.603-0.839-5.103-1.893-7.314-3.518
	c-3.703-2.719-5.782-6.322-5.838-10.999c-0.044-3.685-0.003-7.347,1.007-10.946c2.031-7.239,6.953-11.341,14.449-11.945
	c4.199-0.338,8.29,0.357,12.358,1.272c0.935,0.21,1.874,0.421,2.789,0.7c1.667,0.509,2.229,0.188,2.77-1.651
	c2.031-6.898,3.97-13.823,5.943-20.739c2.147-7.529,4.322-15.052,6.429-22.592c1.31-4.687,1.501-4.223-2.853-5.696
	c-13.322-4.507-26.529-9.332-39.642-14.41c-22.054-8.54-44.094-17.115-66.141-25.671c-1.788-0.694-3.649-1.232-5.364-2.071
	c-2.766-1.352-5.313-1.273-8.212-0.098c-9.179,3.722-18.48,7.144-27.716,10.729c-24.131,9.367-48.118,19.114-72.552,27.688
	c-4.221,1.481-8.447,2.949-12.678,4.403c-1.612,0.554-2.393,0.957-1.749,3.119c1.688,5.666,3.251,11.369,4.874,17.055
	c2.5,8.759,5.006,17.516,7.513,26.273c0.263,0.921,0.487,1.859,0.832,2.749c0.308,0.794,0.876,1.26,1.847,1.042
	c2.65-0.595,5.296-1.229,7.969-1.698c3.809-0.668,7.611-0.738,11.413,0.267c4.661,1.232,7.927,4.036,9.819,8.416
	c2.292,5.305,2.566,10.919,1.725,16.497c-0.659,4.371-3.603,7.387-7.405,9.524c-3.526,1.982-7.392,3.035-11.294,3.889
	c-3.118,0.682-6.289,1.157-9.457,1.572c-6.736,0.882-12.306-1.357-16.504-6.683c-1.474-1.87-2.704-3.966-3.809-6.083
	c-1.107-2.118-2.074-4.338-2.836-6.603c-5.816-17.287-13.025-34.026-19.927-50.886c-0.666-1.627-1.334-3.253-1.999-4.879
	c-0.417-1.02-1.082-1.542-2.228-1.133c-0.301,0.107-0.619,0.169-0.916,0.283c-15.08,5.791-30.658,10.072-45.963,15.178
	c-20.024,6.679-39.733,14.182-58.884,23.083c-4.923,2.288-9.688,4.92-14.496,7.45c-1.397,0.735-2.853,1.442-3.819,2.625
	c-0.088,0.995,0.35,1.666,0.725,2.375c3.793,7.153,3.389,14.28-0.894,20.946c-6.378,9.926-15.717,15.391-27.465,16.129
	c-7.409,0.465-13.735-2.544-18.832-7.959c-4.977-5.288-7.771-11.67-9.025-18.745c-0.729-4.114-0.87-8.252-0.134-12.414
	c0.945-5.341,3.011-10.032,6.951-13.899c5.276-5.178,11.071-9.684,17.186-13.8c12.102-8.146,24.952-14.956,38.121-21.173
	c32.584-15.382,66.34-27.691,100.763-38.228c4.59-1.405,4.676-0.94,3.294-5.711c-4.047-13.967-7.966-27.972-11.941-41.96
	c-0.262-0.922-0.558-1.837-0.881-2.74c-0.245-0.685-0.853-1-1.502-0.906c-1.104,0.16-2.187,0.467-3.276,0.725
	c-3.9,0.924-7.821,1.623-11.862,1.449c-8.38-0.36-13.871-4.809-15.633-12.919c-0.644-2.965-0.927-5.997-0.886-9.057
	c0.068-5.04,2.261-8.887,6.314-11.759c2.237-1.585,4.701-2.739,7.286-3.596c5.021-1.666,10.164-2.805,15.436-3.319
	c6.975-0.68,12.508,1.868,16.653,7.476c2.688,3.637,4.455,7.741,6.008,11.956c2.817,7.647,5.531,15.336,8.536,22.909
	c4.656,11.736,9.524,23.388,14.285,35.082c0.365,0.897,0.658,1.808,1.842,2.473c28.621-10.872,57.431-21.815,86.253-32.763
	c-0.365-1.942-2.101-1.999-3.259-2.597c-17.615-9.089-35.326-17.991-52.898-27.161c-27.791-14.504-55.155-29.766-81.511-46.78
	c-27.478-17.737-53.539-37.298-77.279-59.859c-29.211-27.76-53.729-59.145-73.048-94.546c-3.602-6.601-6.885-13.358-9.539-20.4
	c-0.843-2.237-1.533-4.54-2.155-6.85c-0.285-1.059-0.352-2.212-0.314-3.315c0.058-1.682,1.312-2.562,2.955-2.245
	c1.445,0.278,2.681,1.02,3.908,1.771c2.876,1.76,5.467,3.898,8,6.107c6.035,5.264,11.674,10.935,17.18,16.743
	c8.149,8.595,15.88,17.552,23.443,26.668c33.93,40.902,73.106,76.055,116.833,106.182c41.532,28.614,85.96,51.725,132.929,70.045
	c11.908,4.645,23.627,9.773,35.432,14.68c0.59,0.245,1.206,0.45,1.755,0.769c1.665,0.967,3.2,0.841,4.985,0.059
	c6.877-3.017,13.812-5.907,20.757-8.768c12.41-5.114,24.906-10.027,37.256-15.282c57.933-24.65,111.228-56.907,159.368-97.56
	c26.35-22.252,50.484-46.691,72.35-73.376c11.063-13.501,22.834-26.36,35.692-38.191c2.945-2.71,5.985-5.312,9.329-7.526
	c1.463-0.969,2.948-1.93,4.711-2.303c1.671-0.353,2.867,0.493,3.05,2.147c0.143,1.294-0.1,2.535-0.397,3.792
	c-1.038,4.381-2.775,8.507-4.59,12.597c-5.462,12.308-12.237,23.9-19.417,35.262c-21.545,34.095-48.136,63.767-78.81,89.857
	c-24.558,20.887-51.041,39.058-78.606,55.699c-29.31,17.695-59.611,33.576-90.089,49.131c-8.258,4.214-16.542,8.377-24.795,12.6
	C845.28,735.262,843.964,735.551,842.855,737.23z"/>
</svg>
